<svg class="marks" width="957.5" height="500" viewBox="0 0 957.5 500" version="1.1" xmlns="http://www.w3.org/2000/svg" xmlns:xlink="http://www.w3.org/1999/xlink"><defs><clipPath id="clip9"><rect x="0" y="0" width="910.5" height="396"></rect></clipPath><clipPath id="clip10"><rect x="0" y="0" width="910.5" height="396"></rect></clipPath><clipPath id="clip11"><rect x="0" y="0" width="910.5" height="396"></rect></clipPath><clipPath id="clip12"><rect x="0" y="0" width="910.5" height="396"></rect></clipPath></defs><g transform="translate(45,5)"><g class="mark-group role-frame root"><g transform="translate(0,0)"><path class="background" d="M0,0h910.5v396h-910.5Z" style="fill: none;"></path><g><g class="mark-group role-axis"><g transform="translate(0.5,0.5)"><path class="background" d="M0,0h0v0h0Z" style="pointer-events: none; fill: none;"></path><g><g class="mark-rule role-axis-grid" style="pointer-events: none;"><line transform="translate(0,396)" x2="910.5" y2="0" style="fill: none; stroke: #d8e1ed; stroke-width: 1; stroke-dasharray: 2,2; opacity: 1;"></line><line transform="translate(0,356)" x2="910.5" y2="0" style="fill: none; stroke: #d8e1ed; stroke-width: 1; stroke-dasharray: 2,2; opacity: 1;"></line><line transform="translate(0,317)" x2="910.5" y2="0" style="fill: none; stroke: #d8e1ed; stroke-width: 1; stroke-dasharray: 2,2; opacity: 1;"></line><line transform="translate(0,277)" x2="910.5" y2="0" style="fill: none; stroke: #d8e1ed; stroke-width: 1; stroke-dasharray: 2,2; opacity: 1;"></line><line transform="translate(0,238)" x2="910.5" y2="0" style="fill: none; stroke: #d8e1ed; stroke-width: 1; stroke-dasharray: 2,2; opacity: 1;"></line><line transform="translate(0,198)" x2="910.5" y2="0" style="fill: none; stroke: #d8e1ed; stroke-width: 1; stroke-dasharray: 2,2; opacity: 1;"></line><line transform="translate(0,158)" x2="910.5" y2="0" style="fill: none; stroke: #d8e1ed; stroke-width: 1; stroke-dasharray: 2,2; opacity: 1;"></line><line transform="translate(0,119)" x2="910.5" y2="0" style="fill: none; stroke: #d8e1ed; stroke-width: 1; stroke-dasharray: 2,2; opacity: 1;"></line><line transform="translate(0,79)" x2="910.5" y2="0" style="fill: none; stroke: #d8e1ed; stroke-width: 1; stroke-dasharray: 2,2; opacity: 1;"></line><line transform="translate(0,40)" x2="910.5" y2="0" style="fill: none; stroke: #d8e1ed; stroke-width: 1; stroke-dasharray: 2,2; opacity: 1;"></line><line transform="translate(0,0)" x2="910.5" y2="0" style="fill: none; stroke: #d8e1ed; stroke-width: 1; stroke-dasharray: 2,2; opacity: 1;"></line></g></g><path class="foreground" d="" style="pointer-events: none; display: none; fill: none;"></path></g></g><g class="mark-group role-axis"><g transform="translate(0.5,396.5)"><path class="background" d="M0,0h0v0h0Z" style="pointer-events: none; fill: none;"></path><g><g class="mark-rule role-axis-tick" style="pointer-events: none;"><line transform="translate(0,0)" x2="0" y2="5" style="fill: none; stroke: #888; stroke-width: 1; opacity: 1;"></line><line transform="translate(23,0)" x2="0" y2="5" style="fill: none; stroke: #888; stroke-width: 1; opacity: 1;"></line><line transform="translate(45,0)" x2="0" y2="5" style="fill: none; stroke: #888; stroke-width: 1; opacity: 1;"></line><line transform="translate(68,0)" x2="0" y2="5" style="fill: none; stroke: #888; stroke-width: 1; opacity: 1;"></line><line transform="translate(91,0)" x2="0" y2="5" style="fill: none; stroke: #888; stroke-width: 1; opacity: 1;"></line><line transform="translate(114,0)" x2="0" y2="5" style="fill: none; stroke: #888; stroke-width: 1; opacity: 1;"></line><line transform="translate(136,0)" x2="0" y2="5" style="fill: none; stroke: #888; stroke-width: 1; opacity: 1;"></line><line transform="translate(159,0)" x2="0" y2="5" style="fill: none; stroke: #888; stroke-width: 1; opacity: 1;"></line><line transform="translate(182,0)" x2="0" y2="5" style="fill: none; stroke: #888; stroke-width: 1; opacity: 1;"></line><line transform="translate(205,0)" x2="0" y2="5" style="fill: none; stroke: #888; stroke-width: 1; opacity: 1;"></line><line transform="translate(227,0)" x2="0" y2="5" style="fill: none; stroke: #888; stroke-width: 1; opacity: 1;"></line><line transform="translate(250,0)" x2="0" y2="5" style="fill: none; stroke: #888; stroke-width: 1; opacity: 1;"></line><line transform="translate(273,0)" x2="0" y2="5" style="fill: none; stroke: #888; stroke-width: 1; opacity: 1;"></line><line transform="translate(296,0)" x2="0" y2="5" style="fill: none; stroke: #888; stroke-width: 1; opacity: 1;"></line><line transform="translate(318,0)" x2="0" y2="5" style="fill: none; stroke: #888; stroke-width: 1; opacity: 1;"></line><line transform="translate(341,0)" x2="0" y2="5" style="fill: none; stroke: #888; stroke-width: 1; opacity: 1;"></line><line transform="translate(364,0)" x2="0" y2="5" style="fill: none; stroke: #888; stroke-width: 1; opacity: 1;"></line><line transform="translate(387,0)" x2="0" y2="5" style="fill: none; stroke: #888; stroke-width: 1; opacity: 1;"></line><line transform="translate(410,0)" x2="0" y2="5" style="fill: none; stroke: #888; stroke-width: 1; opacity: 1;"></line><line transform="translate(432,0)" x2="0" y2="5" style="fill: none; stroke: #888; stroke-width: 1; opacity: 1;"></line><line transform="translate(455,0)" x2="0" y2="5" style="fill: none; stroke: #888; stroke-width: 1; opacity: 1;"></line><line transform="translate(478,0)" x2="0" y2="5" style="fill: none; stroke: #888; stroke-width: 1; opacity: 1;"></line><line transform="translate(500,0)" x2="0" y2="5" style="fill: none; stroke: #888; stroke-width: 1; opacity: 1;"></line><line transform="translate(523,0)" x2="0" y2="5" style="fill: none; stroke: #888; stroke-width: 1; opacity: 1;"></line><line transform="translate(546,0)" x2="0" y2="5" style="fill: none; stroke: #888; stroke-width: 1; opacity: 1;"></line><line transform="translate(569,0)" x2="0" y2="5" style="fill: none; stroke: #888; stroke-width: 1; opacity: 1;"></line><line transform="translate(591,0)" x2="0" y2="5" style="fill: none; stroke: #888; stroke-width: 1; opacity: 1;"></line><line transform="translate(614,0)" x2="0" y2="5" style="fill: none; stroke: #888; stroke-width: 1; opacity: 1;"></line><line transform="translate(637,0)" x2="0" y2="5" style="fill: none; stroke: #888; stroke-width: 1; opacity: 1;"></line><line transform="translate(660,0)" x2="0" y2="5" style="fill: none; stroke: #888; stroke-width: 1; opacity: 1;"></line><line transform="translate(682,0)" x2="0" y2="5" style="fill: none; stroke: #888; stroke-width: 1; opacity: 1;"></line><line transform="translate(705,0)" x2="0" y2="5" style="fill: none; stroke: #888; stroke-width: 1; opacity: 1;"></line><line transform="translate(728,0)" x2="0" y2="5" style="fill: none; stroke: #888; stroke-width: 1; opacity: 1;"></line><line transform="translate(751,0)" x2="0" y2="5" style="fill: none; stroke: #888; stroke-width: 1; opacity: 1;"></line><line transform="translate(774,0)" x2="0" y2="5" style="fill: none; stroke: #888; stroke-width: 1; opacity: 1;"></line><line transform="translate(797,0)" x2="0" y2="5" style="fill: none; stroke: #888; stroke-width: 1; opacity: 1;"></line><line transform="translate(820,0)" x2="0" y2="5" style="fill: none; stroke: #888; stroke-width: 1; opacity: 1;"></line><line transform="translate(842,0)" x2="0" y2="5" style="fill: none; stroke: #888; stroke-width: 1; opacity: 1;"></line><line transform="translate(865,0)" x2="0" y2="5" style="fill: none; stroke: #888; stroke-width: 1; opacity: 1;"></line><line transform="translate(888,0)" x2="0" y2="5" style="fill: none; stroke: #888; stroke-width: 1; opacity: 1;"></line><line transform="translate(911,0)" x2="0" y2="5" style="fill: none; stroke: #888; stroke-width: 1; opacity: 1;"></line></g><g class="mark-text role-axis-label" style="pointer-events: none;"><text text-anchor="start" transform="translate(0,15)" style="font-family: source_sans_proregular; font-size: 10px; font-weight: normal; fill: #565f69; opacity: 1;">2012</text><text text-anchor="middle" transform="translate(22.681494661921707,15)" style="font-family: source_sans_proregular; font-size: 10px; font-weight: normal; fill: #565f69; opacity: 0;">2012</text><text text-anchor="middle" transform="translate(45.362989323843415,15)" style="font-family: source_sans_proregular; font-size: 10px; font-weight: normal; fill: #565f69; opacity: 1;">2012</text><text text-anchor="middle" transform="translate(68.29373117985219,15)" style="font-family: source_sans_proregular; font-size: 10px; font-weight: normal; fill: #565f69; opacity: 0;">2012</text><text text-anchor="middle" transform="translate(91.22447303586094,15)" style="font-family: source_sans_proregular; font-size: 10px; font-weight: normal; fill: #565f69; opacity: 1;">2013</text><text text-anchor="middle" transform="translate(113.6567205036956,15)" style="font-family: source_sans_proregular; font-size: 10px; font-weight: normal; fill: #565f69; opacity: 0;">2013</text><text text-anchor="middle" transform="translate(136.3382151656173,15)" style="font-family: source_sans_proregular; font-size: 10px; font-weight: normal; fill: #565f69; opacity: 1;">2013</text><text text-anchor="middle" transform="translate(159.26895702162608,15)" style="font-family: source_sans_proregular; font-size: 10px; font-weight: normal; fill: #565f69; opacity: 0;">2013</text><text text-anchor="middle" transform="translate(182.19969887763483,15)" style="font-family: source_sans_proregular; font-size: 10px; font-weight: normal; fill: #565f69; opacity: 1;">2014</text><text text-anchor="middle" transform="translate(204.63194634546946,15)" style="font-family: source_sans_proregular; font-size: 10px; font-weight: normal; fill: #565f69; opacity: 0;">2014</text><text text-anchor="middle" transform="translate(227.3134410073912,15)" style="font-family: source_sans_proregular; font-size: 10px; font-weight: normal; fill: #565f69; opacity: 1;">2014</text><text text-anchor="middle" transform="translate(250.24418286339994,15)" style="font-family: source_sans_proregular; font-size: 10px; font-weight: normal; fill: #565f69; opacity: 0;">2014</text><text text-anchor="middle" transform="translate(273.17492471940875,15)" style="font-family: source_sans_proregular; font-size: 10px; font-weight: normal; fill: #565f69; opacity: 1;">2015</text><text text-anchor="middle" transform="translate(295.60717218724335,15)" style="font-family: source_sans_proregular; font-size: 10px; font-weight: normal; fill: #565f69; opacity: 0;">2015</text><text text-anchor="middle" transform="translate(318.28866684916505,15)" style="font-family: source_sans_proregular; font-size: 10px; font-weight: normal; fill: #565f69; opacity: 1;">2015</text><text text-anchor="middle" transform="translate(341.2194087051738,15)" style="font-family: source_sans_proregular; font-size: 10px; font-weight: normal; fill: #565f69; opacity: 0;">2015</text><text text-anchor="middle" transform="translate(364.1501505611826,15)" style="font-family: source_sans_proregular; font-size: 10px; font-weight: normal; fill: #565f69; opacity: 1;">2016</text><text text-anchor="middle" transform="translate(386.83164522310426,15)" style="font-family: source_sans_proregular; font-size: 10px; font-weight: normal; fill: #565f69; opacity: 0;">2016</text><text text-anchor="middle" transform="translate(409.513139885026,15)" style="font-family: source_sans_proregular; font-size: 10px; font-weight: normal; fill: #565f69; opacity: 1;">2016</text><text text-anchor="middle" transform="translate(432.4438817410348,15)" style="font-family: source_sans_proregular; font-size: 10px; font-weight: normal; fill: #565f69; opacity: 0;">2016</text><text text-anchor="middle" transform="translate(455.3746235970436,15)" style="font-family: source_sans_proregular; font-size: 10px; font-weight: normal; fill: #565f69; opacity: 1;">2017</text><text text-anchor="middle" transform="translate(477.8068710648782,15)" style="font-family: source_sans_proregular; font-size: 10px; font-weight: normal; fill: #565f69; opacity: 0;">2017</text><text text-anchor="middle" transform="translate(500.4883657267999,15)" style="font-family: source_sans_proregular; font-size: 10px; font-weight: normal; fill: #565f69; opacity: 1;">2017</text><text text-anchor="middle" transform="translate(523.4191075828087,15)" style="font-family: source_sans_proregular; font-size: 10px; font-weight: normal; fill: #565f69; opacity: 0;">2017</text><text text-anchor="middle" transform="translate(546.3498494388175,15)" style="font-family: source_sans_proregular; font-size: 10px; font-weight: normal; fill: #565f69; opacity: 1;">2018</text><text text-anchor="middle" transform="translate(568.7820969066521,15)" style="font-family: source_sans_proregular; font-size: 10px; font-weight: normal; fill: #565f69; opacity: 0;">2018</text><text text-anchor="middle" transform="translate(591.4635915685737,15)" style="font-family: source_sans_proregular; font-size: 10px; font-weight: normal; fill: #565f69; opacity: 1;">2018</text><text text-anchor="middle" transform="translate(614.3943334245826,15)" style="font-family: source_sans_proregular; font-size: 10px; font-weight: normal; fill: #565f69; opacity: 0;">2018</text><text text-anchor="middle" transform="translate(637.3250752805914,15)" style="font-family: source_sans_proregular; font-size: 10px; font-weight: normal; fill: #565f69; opacity: 1;">2019</text><text text-anchor="middle" transform="translate(659.757322748426,15)" style="font-family: source_sans_proregular; font-size: 10px; font-weight: normal; fill: #565f69; opacity: 0;">2019</text><text text-anchor="middle" transform="translate(682.4388174103476,15)" style="font-family: source_sans_proregular; font-size: 10px; font-weight: normal; fill: #565f69; opacity: 1;">2019</text><text text-anchor="middle" transform="translate(705.3695592663564,15)" style="font-family: source_sans_proregular; font-size: 10px; font-weight: normal; fill: #565f69; opacity: 0;">2019</text><text text-anchor="middle" transform="translate(728.3003011223652,15)" style="font-family: source_sans_proregular; font-size: 10px; font-weight: normal; fill: #565f69; opacity: 1;">2020</text><text text-anchor="middle" transform="translate(750.9817957842869,15)" style="font-family: source_sans_proregular; font-size: 10px; font-weight: normal; fill: #565f69; opacity: 0;">2020</text><text text-anchor="middle" transform="translate(773.6632904462085,15)" style="font-family: source_sans_proregular; font-size: 10px; font-weight: normal; fill: #565f69; opacity: 1;">2020</text><text text-anchor="middle" transform="translate(796.5940323022173,15)" style="font-family: source_sans_proregular; font-size: 10px; font-weight: normal; fill: #565f69; opacity: 0;">2020</text><text text-anchor="middle" transform="translate(819.5247741582261,15)" style="font-family: source_sans_proregular; font-size: 10px; font-weight: normal; fill: #565f69; opacity: 1;">2021</text><text text-anchor="middle" transform="translate(841.9570216260609,15)" style="font-family: source_sans_proregular; font-size: 10px; font-weight: normal; fill: #565f69; opacity: 0;">2021</text><text text-anchor="middle" transform="translate(864.6385162879825,15)" style="font-family: source_sans_proregular; font-size: 10px; font-weight: normal; fill: #565f69; opacity: 1;">2021</text><text text-anchor="middle" transform="translate(887.5692581439912,15)" style="font-family: source_sans_proregular; font-size: 10px; font-weight: normal; fill: #565f69; opacity: 0;">2021</text><text text-anchor="end" transform="translate(910.5,15)" style="font-family: source_sans_proregular; font-size: 10px; font-weight: normal; fill: #565f69; opacity: 1;">2022</text></g><g class="mark-rule role-axis-domain" style="pointer-events: none;"><line transform="translate(0,0)" x2="910.5" y2="0" style="fill: none; stroke: #e4ebf3; stroke-width: 1; opacity: 1;"></line></g><g class="mark-text role-axis-title" style="pointer-events: none;"><text text-anchor="middle" transform="translate(455.25,37)" style="font-family: source_sans_prosemibold; font-size: 13px; font-weight: normal; fill: #14597a; opacity: 1;">Year</text></g></g><path class="foreground" d="" style="pointer-events: none; display: none; fill: none;"></path></g></g><g class="mark-group role-axis"><g transform="translate(0.5,0.5)"><path class="background" d="M0,0h0v0h0Z" style="pointer-events: none; fill: none;"></path><g><g class="mark-rule role-axis-tick" style="pointer-events: none;"><line transform="translate(0,396)" x2="-5" y2="0" style="fill: none; stroke: #888; stroke-width: 1; opacity: 1;"></line><line transform="translate(0,356)" x2="-5" y2="0" style="fill: none; stroke: #888; stroke-width: 1; opacity: 1;"></line><line transform="translate(0,317)" x2="-5" y2="0" style="fill: none; stroke: #888; stroke-width: 1; opacity: 1;"></line><line transform="translate(0,277)" x2="-5" y2="0" style="fill: none; stroke: #888; stroke-width: 1; opacity: 1;"></line><line transform="translate(0,238)" x2="-5" y2="0" style="fill: none; stroke: #888; stroke-width: 1; opacity: 1;"></line><line transform="translate(0,198)" x2="-5" y2="0" style="fill: none; stroke: #888; stroke-width: 1; opacity: 1;"></line><line transform="translate(0,158)" x2="-5" y2="0" style="fill: none; stroke: #888; stroke-width: 1; opacity: 1;"></line><line transform="translate(0,119)" x2="-5" y2="0" style="fill: none; stroke: #888; stroke-width: 1; opacity: 1;"></line><line transform="translate(0,79)" x2="-5" y2="0" style="fill: none; stroke: #888; stroke-width: 1; opacity: 1;"></line><line transform="translate(0,40)" x2="-5" y2="0" style="fill: none; stroke: #888; stroke-width: 1; opacity: 1;"></line><line transform="translate(0,0)" x2="-5" y2="0" style="fill: none; stroke: #888; stroke-width: 1; opacity: 1;"></line></g><g class="mark-text role-axis-label" style="pointer-events: none;"><text text-anchor="end" transform="translate(-7,399)" style="font-family: source_sans_proregular; font-size: 10px; font-weight: normal; fill: #565f69; opacity: 1;">0</text><text text-anchor="end" transform="translate(-7,359.40000000000003)" style="font-family: source_sans_proregular; font-size: 10px; font-weight: normal; fill: #565f69; opacity: 1;">10</text><text text-anchor="end" transform="translate(-7,319.8)" style="font-family: source_sans_proregular; font-size: 10px; font-weight: normal; fill: #565f69; opacity: 1;">20</text><text text-anchor="end" transform="translate(-7,280.2)" style="font-family: source_sans_proregular; font-size: 10px; font-weight: normal; fill: #565f69; opacity: 1;">30</text><text text-anchor="end" transform="translate(-7,240.6)" style="font-family: source_sans_proregular; font-size: 10px; font-weight: normal; fill: #565f69; opacity: 1;">40</text><text text-anchor="end" transform="translate(-7,201)" style="font-family: source_sans_proregular; font-size: 10px; font-weight: normal; fill: #565f69; opacity: 1;">50</text><text text-anchor="end" transform="translate(-7,161.4)" style="font-family: source_sans_proregular; font-size: 10px; font-weight: normal; fill: #565f69; opacity: 1;">60</text><text text-anchor="end" transform="translate(-7,121.80000000000001)" style="font-family: source_sans_proregular; font-size: 10px; font-weight: normal; fill: #565f69; opacity: 1;">70</text><text text-anchor="end" transform="translate(-7,82.19999999999999)" style="font-family: source_sans_proregular; font-size: 10px; font-weight: normal; fill: #565f69; opacity: 1;">80</text><text text-anchor="end" transform="translate(-7,42.599999999999994)" style="font-family: source_sans_proregular; font-size: 10px; font-weight: normal; fill: #565f69; opacity: 1;">90</text><text text-anchor="end" transform="translate(-7,3)" style="font-family: source_sans_proregular; font-size: 10px; font-weight: normal; fill: #565f69; opacity: 1;">100</text></g><g class="mark-rule role-axis-domain" style="pointer-events: none;"><line transform="translate(0,396)" x2="0" y2="-396" style="fill: none; stroke: #e4ebf3; stroke-width: 1; opacity: 1;"></line></g><g class="mark-text role-axis-title" style="pointer-events: none;"><text text-anchor="middle" transform="translate(-31.920000076293945,198) rotate(-90) translate(0,-3)" style="font-family: source_sans_prosemibold; font-size: 13px; font-weight: normal; fill: #14597a; opacity: 1;">Patents</text></g></g><path class="foreground" d="" style="pointer-events: none; display: none; fill: none;"></path></g></g><g class="mark-group role-scope layer_0_pathgroup"><g transform="translate(0,0)"><path class="background" d="M0,0h910.5v396h-910.5Z" style="fill: none;"></path><g><g class="mark-line role-mark layer_0_marks" clip-path="url(#clip9)"><path d="M0,297L91.22447303586094,277.2L182.19969887763483,281.15999999999997L273.17492471940875,249.48L364.1501505611826,194.04L455.3746235970436,237.6L546.3498494388175,138.6L637.3250752805914,27.71999999999998L728.3003011223652,99L819.5247741582261,27.71999999999998L910.5,35.639999999999986" style="fill: none; stroke: #e45756; stroke-width: 2;"></path></g></g><path class="foreground" d="" style="display: none; fill: none;"></path></g><g transform="translate(0,0)"><path class="background" d="M0,0h910.5v396h-910.5Z" style="fill: none;"></path><g><g class="mark-line role-mark layer_0_marks" clip-path="url(#clip10)"><path d="M0,233.64000000000004L91.22447303586094,253.44L182.19969887763483,217.8L273.17492471940875,201.96L364.1501505611826,186.11999999999998L455.3746235970436,75.23999999999998L546.3498494388175,126.71999999999998L637.3250752805914,87.11999999999999L728.3003011223652,95.03999999999999L819.5247741582261,170.28000000000003L910.5,340.56" style="fill: none; stroke: #4c78a8; stroke-width: 2;"></path></g></g><path class="foreground" d="" style="display: none; fill: none;"></path></g><g transform="translate(0,0)"><path class="background" d="M0,0h910.5v396h-910.5Z" style="fill: none;"></path><g><g class="mark-line role-mark layer_0_marks" clip-path="url(#clip11)"><path d="M0,384.12L91.22447303586094,348.48L182.19969887763483,324.72L273.17492471940875,269.28L364.1501505611826,324.72L455.3746235970436,289.08L546.3498494388175,281.15999999999997L637.3250752805914,194.04L728.3003011223652,186.11999999999998L819.5247741582261,182.16L910.5,162.36" style="fill: none; stroke: #f58518; stroke-width: 2;"></path></g></g><path class="foreground" d="" style="display: none; fill: none;"></path></g></g><g class="mark-symbol role-mark layer_1_marks" clip-path="url(#clip12)"><path transform="translate(0,297)" d="M4.47213595499958,0A4.47213595499958,4.47213595499958,0,1,1,-4.47213595499958,0A4.47213595499958,4.47213595499958,0,1,1,4.47213595499958,0" style="fill: #e45756; stroke-width: 2; opacity: 1;"></path><path transform="translate(0,233.64000000000004)" d="M4.47213595499958,0A4.47213595499958,4.47213595499958,0,1,1,-4.47213595499958,0A4.47213595499958,4.47213595499958,0,1,1,4.47213595499958,0" style="fill: #4c78a8; stroke-width: 2; opacity: 1;"></path><path transform="translate(0,384.12)" d="M4.47213595499958,0A4.47213595499958,4.47213595499958,0,1,1,-4.47213595499958,0A4.47213595499958,4.47213595499958,0,1,1,4.47213595499958,0" style="fill: #f58518; stroke-width: 2; opacity: 1;"></path><path transform="translate(91.22447303586094,277.2)" d="M4.47213595499958,0A4.47213595499958,4.47213595499958,0,1,1,-4.47213595499958,0A4.47213595499958,4.47213595499958,0,1,1,4.47213595499958,0" style="fill: #e45756; stroke-width: 2; opacity: 1;"></path><path transform="translate(91.22447303586094,253.44)" d="M4.47213595499958,0A4.47213595499958,4.47213595499958,0,1,1,-4.47213595499958,0A4.47213595499958,4.47213595499958,0,1,1,4.47213595499958,0" style="fill: #4c78a8; stroke-width: 2; opacity: 1;"></path><path transform="translate(91.22447303586094,348.48)" d="M4.47213595499958,0A4.47213595499958,4.47213595499958,0,1,1,-4.47213595499958,0A4.47213595499958,4.47213595499958,0,1,1,4.47213595499958,0" style="fill: #f58518; stroke-width: 2; opacity: 1;"></path><path transform="translate(182.19969887763483,281.15999999999997)" d="M4.47213595499958,0A4.47213595499958,4.47213595499958,0,1,1,-4.47213595499958,0A4.47213595499958,4.47213595499958,0,1,1,4.47213595499958,0" style="fill: #e45756; stroke-width: 2; opacity: 1;"></path><path transform="translate(182.19969887763483,217.8)" d="M4.47213595499958,0A4.47213595499958,4.47213595499958,0,1,1,-4.47213595499958,0A4.47213595499958,4.47213595499958,0,1,1,4.47213595499958,0" style="fill: #4c78a8; stroke-width: 2; opacity: 1;"></path><path transform="translate(182.19969887763483,324.72)" d="M4.47213595499958,0A4.47213595499958,4.47213595499958,0,1,1,-4.47213595499958,0A4.47213595499958,4.47213595499958,0,1,1,4.47213595499958,0" style="fill: #f58518; stroke-width: 2; opacity: 1;"></path><path transform="translate(273.17492471940875,249.48)" d="M4.47213595499958,0A4.47213595499958,4.47213595499958,0,1,1,-4.47213595499958,0A4.47213595499958,4.47213595499958,0,1,1,4.47213595499958,0" style="fill: #e45756; stroke-width: 2; opacity: 1;"></path><path transform="translate(273.17492471940875,201.96)" d="M4.47213595499958,0A4.47213595499958,4.47213595499958,0,1,1,-4.47213595499958,0A4.47213595499958,4.47213595499958,0,1,1,4.47213595499958,0" style="fill: #4c78a8; stroke-width: 2; opacity: 1;"></path><path transform="translate(273.17492471940875,269.28)" d="M4.47213595499958,0A4.47213595499958,4.47213595499958,0,1,1,-4.47213595499958,0A4.47213595499958,4.47213595499958,0,1,1,4.47213595499958,0" style="fill: #f58518; stroke-width: 2; opacity: 1;"></path><path transform="translate(364.1501505611826,194.04)" d="M4.47213595499958,0A4.47213595499958,4.47213595499958,0,1,1,-4.47213595499958,0A4.47213595499958,4.47213595499958,0,1,1,4.47213595499958,0" style="fill: #e45756; stroke-width: 2; opacity: 1;"></path><path transform="translate(364.1501505611826,186.11999999999998)" d="M4.47213595499958,0A4.47213595499958,4.47213595499958,0,1,1,-4.47213595499958,0A4.47213595499958,4.47213595499958,0,1,1,4.47213595499958,0" style="fill: #4c78a8; stroke-width: 2; opacity: 1;"></path><path transform="translate(364.1501505611826,324.72)" d="M4.47213595499958,0A4.47213595499958,4.47213595499958,0,1,1,-4.47213595499958,0A4.47213595499958,4.47213595499958,0,1,1,4.47213595499958,0" style="fill: #f58518; stroke-width: 2; opacity: 1;"></path><path transform="translate(455.3746235970436,237.6)" d="M4.47213595499958,0A4.47213595499958,4.47213595499958,0,1,1,-4.47213595499958,0A4.47213595499958,4.47213595499958,0,1,1,4.47213595499958,0" style="fill: #e45756; stroke-width: 2; opacity: 1;"></path><path transform="translate(455.3746235970436,75.23999999999998)" d="M4.47213595499958,0A4.47213595499958,4.47213595499958,0,1,1,-4.47213595499958,0A4.47213595499958,4.47213595499958,0,1,1,4.47213595499958,0" style="fill: #4c78a8; stroke-width: 2; opacity: 1;"></path><path transform="translate(455.3746235970436,289.08)" d="M4.47213595499958,0A4.47213595499958,4.47213595499958,0,1,1,-4.47213595499958,0A4.47213595499958,4.47213595499958,0,1,1,4.47213595499958,0" style="fill: #f58518; stroke-width: 2; opacity: 1;"></path><path transform="translate(546.3498494388175,138.6)" d="M4.47213595499958,0A4.47213595499958,4.47213595499958,0,1,1,-4.47213595499958,0A4.47213595499958,4.47213595499958,0,1,1,4.47213595499958,0" style="fill: #e45756; stroke-width: 2; opacity: 1;"></path><path transform="translate(546.3498494388175,126.71999999999998)" d="M4.47213595499958,0A4.47213595499958,4.47213595499958,0,1,1,-4.47213595499958,0A4.47213595499958,4.47213595499958,0,1,1,4.47213595499958,0" style="fill: #4c78a8; stroke-width: 2; opacity: 1;"></path><path transform="translate(546.3498494388175,281.15999999999997)" d="M4.47213595499958,0A4.47213595499958,4.47213595499958,0,1,1,-4.47213595499958,0A4.47213595499958,4.47213595499958,0,1,1,4.47213595499958,0" style="fill: #f58518; stroke-width: 2; opacity: 1;"></path><path transform="translate(637.3250752805914,27.71999999999998)" d="M4.47213595499958,0A4.47213595499958,4.47213595499958,0,1,1,-4.47213595499958,0A4.47213595499958,4.47213595499958,0,1,1,4.47213595499958,0" style="fill: #e45756; stroke-width: 2; opacity: 1;"></path><path transform="translate(637.3250752805914,87.11999999999999)" d="M4.47213595499958,0A4.47213595499958,4.47213595499958,0,1,1,-4.47213595499958,0A4.47213595499958,4.47213595499958,0,1,1,4.47213595499958,0" style="fill: #4c78a8; stroke-width: 2; opacity: 1;"></path><path transform="translate(637.3250752805914,194.04)" d="M4.47213595499958,0A4.47213595499958,4.47213595499958,0,1,1,-4.47213595499958,0A4.47213595499958,4.47213595499958,0,1,1,4.47213595499958,0" style="fill: #f58518; stroke-width: 2; opacity: 1;"></path><path transform="translate(728.3003011223652,99)" d="M4.47213595499958,0A4.47213595499958,4.47213595499958,0,1,1,-4.47213595499958,0A4.47213595499958,4.47213595499958,0,1,1,4.47213595499958,0" style="fill: #e45756; stroke-width: 2; opacity: 1;"></path><path transform="translate(728.3003011223652,95.03999999999999)" d="M4.47213595499958,0A4.47213595499958,4.47213595499958,0,1,1,-4.47213595499958,0A4.47213595499958,4.47213595499958,0,1,1,4.47213595499958,0" style="fill: #4c78a8; stroke-width: 2; opacity: 1;"></path><path transform="translate(728.3003011223652,186.11999999999998)" d="M4.47213595499958,0A4.47213595499958,4.47213595499958,0,1,1,-4.47213595499958,0A4.47213595499958,4.47213595499958,0,1,1,4.47213595499958,0" style="fill: #f58518; stroke-width: 2; opacity: 1;"></path><path transform="translate(819.5247741582261,27.71999999999998)" d="M4.47213595499958,0A4.47213595499958,4.47213595499958,0,1,1,-4.47213595499958,0A4.47213595499958,4.47213595499958,0,1,1,4.47213595499958,0" style="fill: #e45756; stroke-width: 2; opacity: 1;"></path><path transform="translate(819.5247741582261,170.28000000000003)" d="M4.47213595499958,0A4.47213595499958,4.47213595499958,0,1,1,-4.47213595499958,0A4.47213595499958,4.47213595499958,0,1,1,4.47213595499958,0" style="fill: #4c78a8; stroke-width: 2; opacity: 1;"></path><path transform="translate(819.5247741582261,182.16)" d="M4.47213595499958,0A4.47213595499958,4.47213595499958,0,1,1,-4.47213595499958,0A4.47213595499958,4.47213595499958,0,1,1,4.47213595499958,0" style="fill: #f58518; stroke-width: 2; opacity: 1;"></path><path transform="translate(910.5,35.639999999999986)" d="M4.47213595499958,0A4.47213595499958,4.47213595499958,0,1,1,-4.47213595499958,0A4.47213595499958,4.47213595499958,0,1,1,4.47213595499958,0" style="fill: #e45756; stroke-width: 2; opacity: 1;"></path><path transform="translate(910.5,340.56)" d="M4.47213595499958,0A4.47213595499958,4.47213595499958,0,1,1,-4.47213595499958,0A4.47213595499958,4.47213595499958,0,1,1,4.47213595499958,0" style="fill: #4c78a8; stroke-width: 2; opacity: 1;"></path><path transform="translate(910.5,162.36)" d="M4.47213595499958,0A4.47213595499958,4.47213595499958,0,1,1,-4.47213595499958,0A4.47213595499958,4.47213595499958,0,1,1,4.47213595499958,0" style="fill: #f58518; stroke-width: 2; opacity: 1;"></path></g><g class="mark-group role-legend"><g transform="translate(0,454)"><path class="background" d="M0,0h187v41h-187Z" style="pointer-events: none; fill: none;"></path><g><g class="mark-group role-legend-entry"><g transform="translate(0,28)"><path class="background" d="M0,0h0v0h0Z" style="pointer-events: none; fill: none;"></path><g><g class="mark-group role-scope"><g transform="translate(0,0.25)"><path class="background" d="M0,0h40.55999946594238v12.5h-40.55999946594238Z" style="pointer-events: none; fill: none; opacity: 1;"></path><g><g class="mark-symbol role-legend-symbol" style="pointer-events: none;"><path transform="translate(6,6)" d="M5,0A5,5,0,1,1,-5,0A5,5,0,1,1,5,0" style="fill: #4c78a8; stroke: #4c78a8; stroke-width: 1.5; opacity: 1;"></path></g><g class="mark-text role-legend-label" style="pointer-events: none;"><text text-anchor="start" transform="translate(16,10)" style="font-family: source_sans_proregular; font-size: 12px; font-weight: normal; fill: #565f69; opacity: 1;">Filed</text></g></g><path class="foreground" d="" style="pointer-events: none; display: none; fill: none;"></path></g><g transform="translate(52,0.25)"><path class="background" d="M0,0h56.400001525878906v12.5h-56.400001525878906Z" style="pointer-events: none; fill: none; opacity: 1;"></path><g><g class="mark-symbol role-legend-symbol" style="pointer-events: none;"><path transform="translate(6,6)" d="M5,0A5,5,0,1,1,-5,0A5,5,0,1,1,5,0" style="fill: #f58518; stroke: #f58518; stroke-width: 1.5; opacity: 1;"></path></g><g class="mark-text role-legend-label" style="pointer-events: none;"><text text-anchor="start" transform="translate(16,10)" style="font-family: source_sans_proregular; font-size: 12px; font-weight: normal; fill: #565f69; opacity: 1;">Granted</text></g></g><path class="foreground" d="" style="pointer-events: none; display: none; fill: none;"></path></g><g transform="translate(120,0.25)"><path class="background" d="M0,0h66.14666748046875v12.5h-66.14666748046875Z" style="pointer-events: none; fill: none; opacity: 1;"></path><g><g class="mark-symbol role-legend-symbol" style="pointer-events: none;"><path transform="translate(6,6)" d="M5,0A5,5,0,1,1,-5,0A5,5,0,1,1,5,0" style="fill: #e45756; stroke: #e45756; stroke-width: 1.5; opacity: 1;"></path></g><g class="mark-text role-legend-label" style="pointer-events: none;"><text text-anchor="start" transform="translate(16,10)" style="font-family: source_sans_proregular; font-size: 12px; font-weight: normal; fill: #565f69; opacity: 1;">Published</text></g></g><path class="foreground" d="" style="pointer-events: none; display: none; fill: none;"></path></g></g></g><path class="foreground" d="" style="pointer-events: none; display: none; fill: none;"></path></g></g><g class="mark-text role-legend-title" style="pointer-events: none;"><text text-anchor="start" transform="translate(0,10)" style="font-family: source_sans_prosemibold; font-size: 13px; font-weight: normal; fill: #14597a; opacity: 1;">Action</text></g></g><path class="foreground" d="" style="pointer-events: none; display: none; fill: none;"></path></g></g></g><path class="foreground" d="" style="display: none; fill: none;"></path></g></g></g></svg>